<?xml version="1.0" encoding="UTF-8"?>
<svg width="341px" height="38px" viewBox="0 0 341 38" version="1.1" xmlns="http://www.w3.org/2000/svg" xmlns:xlink="http://www.w3.org/1999/xlink">
    <title>Raúl Ferrer Dev</title>
    <g id="Page-1" stroke="none" stroke-width="1" fill="none" fill-rule="evenodd">
        <g id="Raúl-Ferrer-Dev" transform="translate(0.613281, 0.460938)" fill-rule="nonzero">
            <path d="M0,36.5390625 L3.2109375,36.5390625 L3.2109375,22.6875 L11.6953125,22.6875 C11.90625,22.6875 12.140625,22.6875 12.3515625,22.6875 L20.1328125,36.5390625 L23.8828125,36.5390625 L15.6796875,22.171875 C20.203125,20.9765625 22.921875,17.390625 22.921875,12.6328125 L22.921875,12.5859375 C22.921875,6.5625 18.703125,2.71875 12.1171875,2.71875 L0,2.71875 L0,36.5390625 Z M3.2109375,19.828125 L3.2109375,5.578125 L11.71875,5.578125 C16.640625,5.578125 19.640625,8.25 19.640625,12.6796875 L19.640625,12.7265625 C19.640625,17.2265625 16.7578125,19.828125 11.859375,19.828125 L3.2109375,19.828125 Z" id="Shape" fill="#00B39A"></path>
            <path d="M37.265625,36.9609375 C40.9921875,36.9609375 44.015625,35.203125 45.515625,32.203125 L45.796875,32.203125 L45.796875,36.5390625 L48.9140625,36.5390625 L48.9140625,19.2890625 C48.9140625,13.96875 45.46875,10.875 39.5625,10.875 C34.3359375,10.875 30.515625,13.453125 29.859375,17.484375 L29.8359375,17.578125 L32.953125,17.578125 L32.9765625,17.53125 C33.6328125,15.0234375 36.046875,13.640625 39.46875,13.640625 C43.546875,13.640625 45.796875,15.609375 45.796875,19.3125 L45.796875,21.6796875 L37.921875,22.1953125 C32.0859375,22.59375 28.828125,25.1484375 28.828125,29.53125 L28.828125,29.578125 C28.828125,34.078125 32.390625,36.9609375 37.265625,36.9609375 Z M31.9921875,29.53125 L31.9921875,29.484375 C31.9921875,26.625 34.0546875,25.0078125 38.34375,24.7265625 L45.796875,24.2109375 L45.796875,27.140625 C45.796875,31.1484375 42.375,34.2421875 37.8515625,34.2421875 C34.453125,34.2421875 31.9921875,32.4140625 31.9921875,29.53125 Z" id="Shape" fill="#00B39A"></path>
            <path d="M67.78125,7.734375 L73.1015625,0 L69.3984375,0 L64.9921875,7.734375 L67.78125,7.734375 Z M65.3203125,36.9609375 C69.234375,36.9609375 72.0703125,35.1796875 73.3125,32.1328125 L73.59375,32.1328125 L73.59375,36.5390625 L76.6875,36.5390625 L76.6875,11.296875 L73.59375,11.296875 L73.59375,26.296875 C73.59375,31.078125 70.78125,34.1953125 66.0703125,34.1953125 C61.734375,34.1953125 59.5546875,31.640625 59.5546875,26.9296875 L59.5546875,11.296875 L56.4609375,11.296875 L56.4609375,27.703125 C56.4609375,33.4921875 59.6484375,36.9609375 65.3203125,36.9609375 Z" id="Shape" fill="#00B39A"></path>
            <polygon id="Path" fill="#00B39A" points="84.84375 36.5390625 87.9375 36.5390625 87.9375 1.2421875 84.84375 1.2421875"></polygon>
            <polygon id="Path" fill="#00B39A" points="109.40625 36.5390625 112.617188 36.5390625 112.617188 21.1875 128.109375 21.1875 128.109375 18.328125 112.617188 18.328125 112.617188 5.625 129.46875 5.625 129.46875 2.71875 109.40625 2.71875"></polygon>
            <path d="M146.273438,36.9609375 C151.851562,36.9609375 155.53125,33.9140625 156.515625,30.4921875 L156.585938,30.3046875 L153.46875,30.3046875 L153.375,30.46875 C152.554688,32.4375 150.023438,34.171875 146.34375,34.171875 C141.328125,34.171875 138.09375,30.6328125 138,24.7265625 L156.960938,24.7265625 L156.960938,23.4140625 C156.960938,15.9375 152.789062,10.875 146.015625,10.875 C139.242188,10.875 134.835938,16.078125 134.835938,23.953125 L134.835938,24 C134.835938,31.921875 139.195312,36.9609375 146.273438,36.9609375 Z M146.015625,13.640625 C150.351562,13.640625 153.46875,16.59375 153.820312,22.1953125 L138.023438,22.1953125 C138.421875,16.734375 141.65625,13.640625 146.015625,13.640625 Z" id="Shape" fill="#00B39A"></path>
            <path d="M163.617188,36.5390625 L166.710938,36.5390625 L166.710938,20.7890625 C166.710938,16.7109375 169.617188,13.828125 173.554688,13.828125 C174.515625,13.828125 175.335938,13.921875 176.25,14.15625 L176.25,11.109375 C175.640625,10.96875 174.796875,10.875 173.882812,10.875 C170.460938,10.875 168,12.5625 167.015625,15.4453125 L166.710938,15.4453125 L166.710938,11.296875 L163.617188,11.296875 L163.617188,36.5390625 Z" id="Path" fill="#00B39A"></path>
            <path d="M181.523438,36.5390625 L184.617188,36.5390625 L184.617188,20.7890625 C184.617188,16.7109375 187.523438,13.828125 191.460938,13.828125 C192.421875,13.828125 193.242188,13.921875 194.15625,14.15625 L194.15625,11.109375 C193.546875,10.96875 192.703125,10.875 191.789062,10.875 C188.367188,10.875 185.90625,12.5625 184.921875,15.4453125 L184.617188,15.4453125 L184.617188,11.296875 L181.523438,11.296875 L181.523438,36.5390625 Z" id="Path" fill="#00B39A"></path>
            <path d="M209.601562,36.9609375 C215.179688,36.9609375 218.859375,33.9140625 219.84375,30.4921875 L219.914062,30.3046875 L216.796875,30.3046875 L216.703125,30.46875 C215.882812,32.4375 213.351562,34.171875 209.671875,34.171875 C204.65625,34.171875 201.421875,30.6328125 201.328125,24.7265625 L220.289062,24.7265625 L220.289062,23.4140625 C220.289062,15.9375 216.117188,10.875 209.34375,10.875 C202.570312,10.875 198.164062,16.078125 198.164062,23.953125 L198.164062,24 C198.164062,31.921875 202.523438,36.9609375 209.601562,36.9609375 Z M209.34375,13.640625 C213.679688,13.640625 216.796875,16.59375 217.148438,22.1953125 L201.351562,22.1953125 C201.75,16.734375 204.984375,13.640625 209.34375,13.640625 Z" id="Shape" fill="#00B39A"></path>
            <path d="M226.945312,36.5390625 L230.039062,36.5390625 L230.039062,20.7890625 C230.039062,16.7109375 232.945312,13.828125 236.882812,13.828125 C237.84375,13.828125 238.664062,13.921875 239.578125,14.15625 L239.578125,11.109375 C238.96875,10.96875 238.125,10.875 237.210938,10.875 C233.789062,10.875 231.328125,12.5625 230.34375,15.4453125 L230.039062,15.4453125 L230.039062,11.296875 L226.945312,11.296875 L226.945312,36.5390625 Z" id="Path" fill="#00B39A"></path>
            <path d="M258.164062,36.5390625 L269.296875,36.5390625 C279.632812,36.5390625 285.351562,30.140625 285.351562,19.640625 L285.351562,19.59375 C285.351562,9.1171875 279.609375,2.71875 269.296875,2.71875 L258.164062,2.71875 L258.164062,36.5390625 Z M261.375,33.6328125 L261.375,5.625 L269.109375,5.625 C277.359375,5.625 282.070312,10.8984375 282.070312,19.6171875 L282.070312,19.6640625 C282.070312,28.3828125 277.382812,33.6328125 269.109375,33.6328125 L261.375,33.6328125 Z" id="Shape" fill="#B33D00"></path>
            <path d="M302.460938,36.9609375 C308.039062,36.9609375 311.71875,33.9140625 312.703125,30.4921875 L312.773438,30.3046875 L309.65625,30.3046875 L309.5625,30.46875 C308.742188,32.4375 306.210938,34.171875 302.53125,34.171875 C297.515625,34.171875 294.28125,30.6328125 294.1875,24.7265625 L313.148438,24.7265625 L313.148438,23.4140625 C313.148438,15.9375 308.976562,10.875 302.203125,10.875 C295.429688,10.875 291.023438,16.078125 291.023438,23.953125 L291.023438,24 C291.023438,31.921875 295.382812,36.9609375 302.460938,36.9609375 Z M302.203125,13.640625 C306.539062,13.640625 309.65625,16.59375 310.007812,22.1953125 L294.210938,22.1953125 C294.609375,16.734375 297.84375,13.640625 302.203125,13.640625 Z" id="Shape" fill="#B33D00"></path>
            <polygon id="Path" fill="#B33D00" points="326.835938 36.5390625 330.117188 36.5390625 339.539062 11.296875 336.234375 11.296875 328.617188 33.1875 328.335938 33.1875 320.695312 11.296875 317.414062 11.296875"></polygon>
        </g>
    </g>
</svg>